<?xml version="1.0" encoding="UTF-8"?>
<svg xmlns="http://www.w3.org/2000/svg" xmlns:xlink="http://www.w3.org/1999/xlink" width="380px" height="75px" viewBox="0 0 383 75" version="1.1">
<g id="surface1">
<path style=" stroke:none;fill-rule:nonzero;fill:rgb(100%,100%,100%);fill-opacity:1;" d="M 34.472656 47.289062 C 34.527344 48.703125 34.839844 49.039062 36.207031 49.082031 C 37.0625 49.105469 37.921875 49.089844 38.78125 49.089844 C 39.761719 49.089844 40.746094 49.117188 41.726562 49.070312 C 42.632812 49.027344 43.042969 48.59375 43.121094 47.683594 C 43.160156 47.195312 43.136719 46.703125 43.136719 46.207031 C 43.136719 40.929688 43.132812 35.648438 43.144531 30.363281 C 43.144531 29.132812 43.183594 27.90625 43.257812 26.675781 C 43.308594 25.628906 43.582031 24.605469 44.066406 23.675781 C 44.515625 22.828125 45.179688 22.230469 46.113281 21.941406 C 48.398438 21.234375 50.300781 22.285156 50.914062 24.613281 C 51.230469 25.8125 51.277344 27.035156 51.273438 28.269531 C 51.265625 34.289062 51.261719 40.304688 51.269531 46.320312 C 51.269531 46.75 51.25 47.179688 51.277344 47.609375 C 51.335938 48.640625 51.707031 49.042969 52.769531 49.0625 C 54.667969 49.097656 56.570312 49.097656 58.472656 49.058594 C 59.421875 49.039062 59.796875 48.625 59.859375 47.703125 C 59.890625 47.214844 59.871094 46.71875 59.871094 46.226562 C 59.871094 40.882812 59.871094 35.542969 59.871094 30.203125 C 59.871094 28.726562 59.929688 27.253906 60.148438 25.792969 C 60.269531 24.992188 60.515625 24.242188 60.980469 23.574219 C 62.003906 22.117188 63.777344 21.496094 65.535156 21.972656 C 66.988281 22.367188 67.761719 23.40625 67.929688 25.304688 C 68.019531 26.34375 68.035156 27.390625 68.039062 28.433594 C 68.042969 34.515625 68.039062 40.59375 68.027344 46.671875 C 68.027344 46.917969 68.019531 47.164062 68.035156 47.40625 C 68.109375 48.671875 68.460938 49.046875 69.722656 49.066406 C 71.4375 49.097656 73.15625 49.09375 74.875 49.066406 C 76.265625 49.046875 76.621094 48.683594 76.683594 47.34375 C 76.695312 47.160156 76.683594 46.976562 76.683594 46.789062 C 76.699219 39.175781 76.714844 31.5625 76.730469 23.949219 C 76.738281 22.660156 76.613281 21.371094 76.355469 20.105469 C 76.042969 18.527344 75.246094 17.089844 74.074219 15.988281 C 70.121094 12.210938 63.25 12.984375 60.195312 17.5625 C 59.890625 18.023438 59.625 18.5 59.183594 19.226562 C 58.679688 18.421875 58.289062 17.808594 57.90625 17.191406 C 54.839844 12.21875 47.144531 12.601562 44.203125 16.886719 C 43.875 17.367188 43.730469 18.023438 43.089844 18.261719 C 42.398438 17.753906 42.886719 17.023438 42.742188 16.410156 C 42.699219 16.238281 42.742188 16.042969 42.726562 15.859375 C 42.648438 14.714844 42.285156 14.328125 41.128906 14.300781 C 39.78125 14.261719 38.433594 14.285156 37.082031 14.285156 C 34.589844 14.3125 34.472656 14.425781 34.472656 16.894531 C 34.472656 26.78125 34.472656 36.667969 34.472656 46.550781 C 34.472656 46.800781 34.464844 47.046875 34.472656 47.289062 Z M 34.472656 47.289062 "/>
<path style=" stroke:none;fill-rule:nonzero;fill:rgb(100%,100%,100%);fill-opacity:1;" d="M 268.464844 19.40625 C 267.453125 16.1875 265.277344 14.246094 261.992188 13.558594 C 260.539062 13.253906 259.074219 13.226562 257.597656 13.375 C 254.304688 13.707031 251.285156 14.832031 248.453125 16.507812 C 247.925781 16.820312 247.421875 17.167969 246.890625 17.476562 C 246.15625 17.914062 245.996094 17.878906 245.511719 17.261719 C 245.4375 17.164062 245.371094 17.058594 245.300781 16.957031 C 243.902344 14.90625 241.925781 13.816406 239.5 13.457031 C 236.507812 13.007812 233.644531 13.535156 230.839844 14.554688 C 229.277344 15.125 227.824219 15.90625 226.394531 16.746094 C 224.914062 17.613281 224.90625 17.601562 224.492188 16.019531 C 224.445312 15.84375 224.410156 15.660156 224.359375 15.484375 C 224.148438 14.738281 223.632812 14.367188 222.878906 14.335938 C 222.269531 14.3125 221.65625 14.316406 221.039062 14.316406 C 218.617188 14.324219 218.449219 14.492188 218.445312 16.945312 C 218.441406 21.859375 218.441406 26.769531 218.445312 31.679688 C 218.445312 36.589844 218.445312 41.5 218.445312 46.410156 C 218.441406 46.960938 218.472656 47.511719 218.539062 48.058594 C 218.613281 48.601562 218.992188 48.992188 219.519531 49.007812 C 221.050781 49.058594 222.582031 49.058594 224.113281 49.007812 C 224.71875 48.992188 225.113281 48.550781 225.1875 47.929688 C 225.238281 47.378906 225.257812 46.828125 225.246094 46.273438 C 225.246094 38.90625 225.246094 31.539062 225.246094 24.175781 C 225.246094 23.683594 225.257812 23.191406 225.246094 22.699219 C 225.226562 22.085938 225.46875 21.675781 226.019531 21.363281 C 228.910156 19.738281 231.976562 18.785156 235.316406 18.878906 C 237.945312 18.945312 239.371094 20.125 240.03125 22.671875 C 240.324219 23.816406 240.324219 24.980469 240.324219 26.148438 C 240.332031 32.835938 240.332031 39.527344 240.332031 46.21875 C 240.332031 46.773438 240.304688 47.324219 240.371094 47.878906 C 240.445312 48.476562 240.8125 48.96875 241.421875 48.992188 C 242.949219 49.054688 244.480469 49.050781 246.011719 49.003906 C 246.621094 48.984375 247.015625 48.53125 247.101562 47.929688 C 247.175781 47.386719 247.160156 46.824219 247.160156 46.277344 C 247.164062 38.847656 247.164062 31.421875 247.160156 23.996094 C 247.160156 23.566406 247.171875 23.136719 247.160156 22.707031 C 247.148438 22.167969 247.351562 21.757812 247.828125 21.492188 C 250.816406 19.804688 253.980469 18.726562 257.460938 18.894531 C 259.859375 19.003906 261.300781 20.230469 261.910156 22.550781 C 262.210938 23.695312 262.246094 24.855469 262.25 26.023438 C 262.25 32.714844 262.25 39.402344 262.25 46.09375 C 262.25 46.585938 262.230469 47.078125 262.261719 47.570312 C 262.328125 48.597656 262.714844 49.007812 263.746094 49.050781 C 264.847656 49.09375 265.953125 49.03125 267.054688 49.074219 C 268.496094 49.132812 269.082031 48.664062 269.058594 47.144531 C 269.050781 46.777344 269.058594 46.410156 269.058594 46.039062 C 269.058594 43.765625 269.058594 41.496094 269.058594 39.222656 C 269.058594 34.191406 269.058594 29.15625 269.058594 24.121094 C 269.066406 22.535156 268.953125 20.945312 268.464844 19.40625 Z M 268.464844 19.40625 "/>
<path style=" stroke:none;fill-rule:nonzero;fill:rgb(100%,100%,100%);fill-opacity:1;" d="M 28.953125 42.136719 C 27.84375 40.582031 27.253906 38.90625 27.296875 36.984375 C 27.339844 34.894531 27.304688 32.808594 27.304688 30.71875 C 27.304688 28.875 27.332031 27.03125 27.296875 25.191406 C 27.277344 24.085938 27.195312 22.984375 27.082031 21.886719 C 26.714844 18.300781 24.753906 15.90625 21.5 14.515625 C 20.082031 13.921875 18.582031 13.546875 17.054688 13.398438 C 14.019531 13.089844 11.046875 13.367188 8.1875 14.46875 C 4.785156 15.777344 2.421875 18.117188 1.359375 21.667969 C 1.21875 22.136719 1.121094 22.621094 1.078125 23.109375 C 1.023438 23.71875 1.371094 24.234375 1.976562 24.316406 C 3.921875 24.574219 5.871094 24.785156 7.824219 24.984375 C 8.355469 25.035156 8.769531 24.746094 9 24.261719 C 9.125 23.980469 9.230469 23.691406 9.3125 23.398438 C 10.179688 20.542969 13.0625 19.75 15.183594 20.167969 C 16.835938 20.496094 17.90625 21.484375 18.257812 23.191406 C 18.441406 24.101562 18.46875 25.019531 18.453125 25.941406 C 18.433594 26.910156 18.375 27.003906 17.457031 27.128906 C 15.695312 27.367188 13.925781 27.542969 12.167969 27.800781 C 9.976562 28.117188 7.828125 28.605469 5.847656 29.65625 C 3.046875 31.140625 1.140625 33.367188 0.390625 36.480469 C -0.125 38.578125 -0.121094 40.769531 0.398438 42.867188 C 1.226562 46.1875 3.316406 48.324219 6.65625 49.183594 C 8.535156 49.664062 10.425781 49.566406 12.316406 49.304688 C 14.113281 49.054688 15.730469 48.332031 17.160156 47.214844 C 17.835938 46.683594 18.460938 46.097656 19.117188 45.546875 C 19.578125 45.164062 19.816406 45.175781 20.167969 45.671875 C 20.917969 46.722656 21.675781 47.765625 22.664062 48.609375 C 23.652344 49.453125 24.21875 49.484375 25.238281 48.621094 C 26.363281 47.671875 27.457031 46.6875 28.5625 45.710938 C 30.339844 44.152344 30.371094 44.136719 28.953125 42.136719 Z M 18.160156 37.796875 C 17.859375 39.273438 17.234375 40.585938 16.164062 41.667969 C 15.433594 42.425781 14.46875 42.914062 13.425781 43.050781 C 11.785156 43.269531 10.390625 42.496094 9.679688 40.992188 C 8.273438 37.992188 9.613281 34.417969 12.660156 33.125 C 14.261719 32.445312 15.960938 32.21875 17.691406 32.226562 C 18.246094 32.226562 18.429688 32.429688 18.453125 33.027344 C 18.476562 33.519531 18.453125 34.011719 18.453125 34.5 C 18.492188 35.609375 18.390625 36.71875 18.15625 37.800781 Z M 18.160156 37.796875 "/>
<path style=" stroke:none;fill-rule:nonzero;fill:rgb(100%,100%,100%);fill-opacity:1;" d="M 90.46875 49.472656 C 91.328125 49.523438 92.1875 49.523438 93.042969 49.472656 C 95.371094 49.359375 97.488281 48.628906 99.328125 47.179688 C 99.953125 46.6875 100.535156 46.136719 101.140625 45.617188 C 101.703125 45.136719 101.875 45.152344 102.320312 45.734375 C 102.65625 46.171875 102.964844 46.636719 103.300781 47.070312 C 103.820312 47.757812 104.433594 48.371094 105.125 48.890625 C 105.78125 49.382812 106.308594 49.390625 106.980469 48.929688 C 107.273438 48.707031 107.554688 48.472656 107.824219 48.21875 C 108.792969 47.371094 109.757812 46.519531 110.730469 45.671875 C 112.433594 44.1875 112.484375 44.097656 111.117188 42.230469 C 109.902344 40.570312 109.34375 38.761719 109.382812 36.722656 C 109.417969 34.683594 109.390625 32.671875 109.390625 30.644531 L 109.386719 30.644531 C 109.386719 28.738281 109.40625 26.835938 109.375 24.929688 C 109.363281 23.949219 109.285156 22.96875 109.191406 21.992188 C 108.832031 18.246094 106.800781 15.730469 103.34375 14.4375 C 98.652344 12.683594 93.945312 12.859375 89.371094 14.886719 C 86.421875 16.199219 84.429688 18.460938 83.496094 21.59375 C 83.347656 22.058594 83.246094 22.542969 83.1875 23.027344 C 83.117188 23.738281 83.464844 24.25 84.175781 24.347656 C 86.058594 24.601562 87.945312 24.800781 89.839844 24.992188 C 90.449219 25.054688 90.902344 24.761719 91.144531 24.183594 C 91.242188 23.957031 91.324219 23.726562 91.390625 23.492188 C 92.0625 20.957031 94.570312 19.8125 97.019531 20.128906 C 98.683594 20.347656 100.0625 21.371094 100.363281 23.296875 C 100.460938 23.839844 100.519531 24.390625 100.539062 24.941406 C 100.5625 27.253906 100.800781 26.996094 98.5625 27.269531 C 96.433594 27.527344 94.296875 27.722656 92.199219 28.191406 C 90.695312 28.523438 89.230469 28.964844 87.875 29.707031 C 84.96875 31.296875 83.070312 33.667969 82.382812 36.9375 C 81.96875 38.867188 82 40.863281 82.476562 42.777344 C 83.453125 46.722656 86.414062 49.214844 90.46875 49.472656 Z M 91.589844 36.464844 C 91.925781 35.273438 92.710938 34.261719 93.777344 33.636719 C 95.683594 32.511719 97.78125 32.230469 99.941406 32.234375 C 100.097656 32.226562 100.25 32.285156 100.363281 32.390625 C 100.476562 32.5 100.539062 32.648438 100.535156 32.804688 C 100.558594 33.351562 100.542969 33.902344 100.542969 34.21875 C 100.59375 35.394531 100.503906 36.574219 100.28125 37.730469 C 100.054688 39 99.511719 40.191406 98.707031 41.199219 C 98 42.074219 97.128906 42.707031 96.003906 42.960938 C 93.875 43.445312 92.046875 42.390625 91.515625 40.269531 C 91.191406 39.019531 91.21875 37.703125 91.589844 36.464844 Z M 91.589844 36.464844 "/>
<path style=" stroke:none;fill-rule:nonzero;fill:rgb(100%,100%,100%);fill-opacity:1;" d="M 202.425781 35.644531 C 202.425781 32.636719 202.421875 29.628906 202.425781 26.621094 C 202.445312 25.023438 202.347656 23.429688 202.128906 21.847656 C 201.996094 20.941406 201.828125 20.023438 201.535156 19.160156 C 200.566406 16.324219 198.601562 14.550781 195.679688 13.863281 C 194.722656 13.640625 193.738281 13.558594 192.757812 13.617188 C 189.992188 13.765625 187.839844 14.984375 186.328125 17.3125 C 186.0625 17.722656 185.839844 18.164062 185.574219 18.578125 C 185.457031 18.761719 185.367188 19.046875 185.03125 18.902344 C 184.824219 18.8125 184.828125 18.617188 184.824219 18.449219 C 184.808594 17.589844 184.824219 16.730469 184.796875 15.867188 C 184.757812 14.710938 184.414062 14.339844 183.230469 14.316406 C 181.574219 14.277344 179.921875 14.304688 178.265625 14.304688 C 178.078125 14.304688 177.894531 14.316406 177.710938 14.34375 C 177.113281 14.445312 176.71875 14.835938 176.660156 15.449219 C 176.613281 15.933594 176.632812 16.429688 176.632812 16.921875 C 176.632812 26.742188 176.632812 36.5625 176.632812 46.382812 C 176.632812 46.75 176.621094 47.121094 176.640625 47.488281 C 176.695312 48.648438 177.054688 49.054688 178.195312 49.074219 C 180.035156 49.113281 181.875 49.113281 183.71875 49.074219 C 184.828125 49.054688 185.210938 48.621094 185.28125 47.472656 C 185.304688 47.046875 185.289062 46.613281 185.289062 46.183594 C 185.289062 40.96875 185.289062 35.75 185.289062 30.535156 C 185.273438 29.304688 185.351562 28.078125 185.527344 26.863281 C 185.667969 25.890625 185.957031 24.945312 186.390625 24.0625 C 186.816406 23.167969 187.539062 22.445312 188.429688 22.019531 C 189.789062 21.367188 192.121094 21.535156 193.0625 23.714844 C 193.390625 24.445312 193.585938 25.226562 193.640625 26.027344 C 193.695312 27.066406 193.753906 28.109375 193.753906 29.152344 C 193.765625 34.859375 193.769531 40.566406 193.761719 46.277344 C 193.761719 46.765625 193.738281 47.261719 193.78125 47.75 C 193.855469 48.585938 194.242188 49.039062 195.03125 49.058594 C 197.058594 49.101562 199.078125 49.101562 201.097656 49.058594 C 201.914062 49.042969 202.320312 48.597656 202.402344 47.792969 C 202.429688 47.363281 202.441406 46.933594 202.425781 46.503906 C 202.429688 42.882812 202.429688 39.265625 202.425781 35.644531 Z M 202.425781 35.644531 "/>
<path style=" stroke:none;fill-rule:nonzero;fill:rgb(100%,100%,100%);fill-opacity:1;" d="M 124.601562 58.5625 C 124.125 58.613281 123.648438 58.785156 123.195312 58.957031 C 121.816406 59.476562 120.464844 60.050781 119.085938 60.558594 C 110.703125 63.640625 102.082031 65.675781 93.191406 66.566406 C 87.941406 67.082031 82.664062 67.195312 77.402344 66.90625 C 70.910156 66.570312 64.464844 65.621094 58.152344 64.074219 C 48.636719 61.738281 39.5625 58.269531 31.054688 53.371094 C 30.628906 53.121094 30.191406 52.90625 29.738281 52.71875 C 29.308594 52.546875 28.808594 52.710938 28.59375 53.054688 C 28.335938 53.464844 28.378906 53.890625 28.667969 54.25 C 28.941406 54.582031 29.246094 54.886719 29.570312 55.164062 C 44.488281 68.230469 61.886719 74.765625 79.613281 74.992188 C 92.601562 74.964844 103.101562 72.835938 113.160156 68.5625 C 117.058594 66.90625 120.792969 64.917969 124.265625 62.476562 C 124.824219 62.101562 125.351562 61.679688 125.84375 61.21875 C 126.304688 60.765625 126.492188 60.179688 126.230469 59.527344 C 125.960938 58.882812 125.296875 58.492188 124.601562 58.5625 Z M 124.601562 58.5625 "/>
<path style=" stroke:none;fill-rule:nonzero;fill:rgb(100%,100%,100%);fill-opacity:1;" d="M 168.980469 19.894531 C 163.976562 11.511719 151.222656 11.328125 146.269531 20.226562 C 145.792969 21.085938 145.375 21.972656 145.023438 22.886719 C 143.945312 25.667969 143.550781 28.578125 143.53125 31.546875 C 143.507812 33.144531 143.636719 34.742188 143.925781 36.3125 C 144.371094 38.875 145.1875 41.296875 146.535156 43.539062 C 151.371094 51.59375 162.601562 51.679688 167.957031 44.808594 C 169.507812 42.820312 170.621094 40.527344 171.230469 38.078125 C 172.246094 34.078125 172.234375 30.0625 171.371094 26.039062 C 170.917969 23.875 170.109375 21.796875 168.980469 19.894531 Z M 162.421875 37.023438 C 162.230469 38.433594 161.886719 39.792969 161.132812 41.015625 C 160.328125 42.3125 159.175781 42.984375 157.625 42.96875 C 156.425781 42.957031 155.5 42.472656 154.789062 41.53125 C 154.1875 40.738281 153.835938 39.824219 153.570312 38.875 C 153.144531 37.332031 152.96875 35.742188 152.894531 34.152344 C 152.847656 33.175781 152.886719 32.195312 152.886719 31.214844 C 152.828125 29.371094 152.84375 27.535156 153.15625 25.714844 C 153.339844 24.617188 153.613281 23.554688 154.140625 22.574219 C 155.335938 20.355469 157.15625 20.019531 159.109375 20.507812 C 160.25 20.792969 161 21.597656 161.472656 22.65625 C 161.945312 23.714844 162.214844 24.867188 162.359375 26.023438 C 162.816406 29.683594 162.917969 33.355469 162.421875 37.023438 Z M 162.421875 37.023438 "/>
<path style=" stroke:none;fill-rule:nonzero;fill:rgb(100%,100%,100%);fill-opacity:1;" d="M 306.65625 31.804688 C 306.65625 26.894531 306.65625 21.988281 306.65625 17.078125 C 306.65625 16.585938 306.675781 16.09375 306.628906 15.605469 C 306.558594 14.894531 306.160156 14.40625 305.484375 14.375 C 304.015625 14.320312 302.546875 14.328125 301.078125 14.375 C 300.433594 14.394531 300.058594 14.78125 299.972656 15.414062 C 299.90625 16.023438 299.875 16.636719 299.886719 17.25 C 299.882812 24.492188 299.882812 31.730469 299.886719 38.972656 C 299.886719 39.460938 299.875 39.953125 299.886719 40.445312 C 299.898438 40.980469 299.703125 41.40625 299.246094 41.6875 C 296.144531 43.585938 292.839844 44.757812 289.140625 44.457031 C 286.699219 44.257812 285.21875 42.980469 284.589844 40.601562 C 284.289062 39.464844 284.222656 38.304688 284.222656 37.136719 C 284.230469 30.632812 284.230469 24.125 284.222656 17.621094 C 284.222656 17.191406 284.230469 16.761719 284.222656 16.332031 C 284.179688 14.71875 283.847656 14.367188 282.289062 14.328125 C 281.492188 14.304688 280.699219 14.316406 279.898438 14.320312 C 277.703125 14.335938 277.425781 14.585938 277.421875 16.714844 C 277.414062 24.324219 277.417969 31.933594 277.433594 39.542969 C 277.441406 40.585938 277.539062 41.628906 277.726562 42.652344 C 278.460938 46.707031 281.160156 49.28125 285.230469 49.914062 C 286.566406 50.113281 287.917969 50.144531 289.257812 50 C 292.625 49.65625 295.667969 48.449219 298.511719 46.667969 C 299.019531 46.351562 299.488281 45.6875 300.085938 45.859375 C 300.761719 46.054688 300.484375 46.914062 300.710938 47.449219 C 300.785156 47.613281 300.792969 47.804688 300.84375 47.980469 C 301.039062 48.648438 301.488281 49.019531 302.175781 49.050781 C 302.914062 49.078125 303.648438 49.050781 304.386719 49.078125 C 306.4375 49.171875 306.683594 48.566406 306.671875 46.710938 C 306.632812 41.746094 306.65625 36.773438 306.65625 31.804688 Z M 306.65625 31.804688 "/>
<path style=" stroke:none;fill-rule:nonzero;fill:rgb(100%,100%,100%);fill-opacity:1;" d="M 139.371094 40.1875 C 138.355469 39.617188 137.285156 39.148438 136.175781 38.792969 C 134.007812 38.066406 131.765625 37.746094 129.492188 37.675781 C 128.261719 37.636719 128.007812 37.308594 128.722656 36.304688 C 128.972656 35.957031 129.210938 35.597656 129.460938 35.246094 C 132.535156 30.808594 135.59375 26.363281 138.699219 21.945312 C 139.578125 20.695312 140.140625 19.40625 139.96875 17.84375 C 139.921875 17.292969 139.921875 16.738281 139.96875 16.183594 C 140.0625 14.738281 139.527344 14.132812 138.046875 14.207031 C 137.679688 14.222656 137.3125 14.207031 136.945312 14.207031 L 128.480469 14.207031 C 125.539062 14.207031 122.597656 14.207031 119.65625 14.207031 C 119.226562 14.207031 118.796875 14.1875 118.367188 14.222656 C 117.410156 14.296875 117.042969 14.652344 116.953125 15.574219 C 116.929688 15.816406 116.941406 16.0625 116.941406 16.308594 C 116.941406 17.230469 116.933594 18.152344 116.941406 19.074219 C 116.960938 21.015625 117.195312 21.238281 119.210938 21.257812 C 119.515625 21.257812 119.824219 21.257812 120.132812 21.257812 C 122.277344 21.257812 124.421875 21.257812 126.566406 21.257812 C 126.992188 21.257812 127.421875 21.257812 127.851562 21.285156 C 128.316406 21.316406 128.519531 21.652344 128.289062 22.023438 C 127.96875 22.542969 127.621094 23.050781 127.273438 23.554688 C 123.863281 28.503906 120.46875 33.460938 117.027344 38.386719 C 116.1875 39.59375 115.746094 40.875 115.761719 42.339844 C 115.777344 43.691406 115.753906 45.042969 115.773438 46.394531 C 115.773438 46.765625 115.832031 47.128906 115.945312 47.480469 C 116.144531 48.050781 116.714844 48.308594 117.28125 48.109375 C 117.683594 47.964844 118.066406 47.761719 118.453125 47.582031 C 122.882812 45.566406 127.496094 45.027344 132.28125 45.839844 C 134.523438 46.226562 136.691406 46.945312 138.722656 47.964844 C 139.5625 48.382812 140.484375 48.121094 140.53125 46.929688 C 140.59375 45.277344 140.558594 43.617188 140.519531 41.964844 C 140.496094 41.171875 140.0625 40.585938 139.371094 40.1875 Z M 139.371094 40.1875 "/>
<path style=" stroke:none;fill-rule:nonzero;fill:rgb(100%,100%,100%);fill-opacity:1;" d="M 334.433594 32.3125 C 333.132812 31.367188 331.707031 30.671875 330.222656 30.082031 C 328.117188 29.246094 326.003906 28.421875 323.898438 27.585938 C 322.984375 27.230469 322.113281 26.769531 321.308594 26.203125 C 320.351562 25.523438 319.847656 24.578125 319.765625 23.402344 C 319.628906 21.414062 320.539062 19.96875 322.40625 19.238281 C 323.511719 18.808594 324.664062 18.6875 325.832031 18.667969 C 328.101562 18.636719 330.363281 18.921875 332.558594 19.507812 C 333.148438 19.664062 333.738281 19.839844 334.335938 19.96875 C 335.414062 20.199219 335.875 19.875 335.941406 18.835938 C 335.980469 18.164062 335.953125 17.484375 335.941406 16.808594 C 335.925781 15.910156 335.476562 15.3125 334.652344 14.976562 C 334.425781 14.882812 334.199219 14.792969 333.96875 14.707031 C 331.023438 13.636719 327.890625 13.164062 324.761719 13.320312 C 322.410156 13.433594 320.148438 13.949219 318.105469 15.191406 C 315.804688 16.589844 314.136719 18.492188 313.640625 21.203125 C 312.890625 25.332031 314.113281 29.082031 318.226562 31.5625 C 319.386719 32.261719 320.640625 32.757812 321.898438 33.238281 C 323.902344 34.003906 325.902344 34.773438 327.898438 35.554688 C 328.699219 35.863281 329.453125 36.289062 330.132812 36.8125 C 330.957031 37.445312 331.390625 38.285156 331.5 39.320312 C 331.742188 41.613281 330.511719 43.5 328.226562 44.246094 C 326.753906 44.726562 325.222656 44.824219 323.683594 44.722656 C 321.105469 44.558594 318.5625 44.234375 316.089844 43.453125 C 315.507812 43.261719 314.917969 43.097656 314.320312 42.96875 C 313.664062 42.832031 313.195312 43.136719 313.105469 43.761719 C 312.972656 44.734375 312.972656 45.71875 313.097656 46.691406 C 313.160156 47.191406 313.460938 47.628906 313.90625 47.863281 C 314.335938 48.097656 314.78125 48.300781 315.238281 48.472656 C 318.128906 49.601562 321.152344 50.011719 324.335938 50.101562 C 326.765625 50.09375 329.246094 49.824219 331.597656 48.800781 C 335.882812 46.925781 338.09375 43.378906 337.839844 38.734375 C 337.699219 36.078125 336.621094 33.90625 334.433594 32.3125 Z M 334.433594 32.3125 "/>
<path style=" stroke:none;fill-rule:nonzero;fill:rgb(100%,100%,100%);fill-opacity:1;" d="M 382.96875 44.121094 C 382.921875 43.371094 382.460938 43.015625 381.730469 43.125 C 381.1875 43.210938 380.65625 43.363281 380.121094 43.5 C 377.925781 44.074219 375.648438 44.273438 373.382812 44.097656 C 368.550781 43.707031 365.730469 41.207031 364.867188 36.441406 C 364.292969 33.292969 364.296875 30.066406 364.886719 26.921875 C 365.765625 22.1875 368.460938 19.746094 373.234375 19.308594 C 375.496094 19.085938 377.78125 19.257812 379.980469 19.820312 C 380.394531 19.929688 380.808594 20.058594 381.230469 20.125 C 382.242188 20.28125 382.632812 20 382.699219 19.019531 C 382.753906 18.285156 382.722656 17.542969 382.726562 16.8125 C 382.730469 15.828125 382.246094 15.195312 381.335938 14.875 C 380.816406 14.691406 380.296875 14.507812 379.765625 14.359375 C 376.808594 13.519531 373.703125 13.34375 370.667969 13.84375 C 364.519531 14.839844 360.464844 18.292969 358.503906 24.203125 C 357.6875 26.675781 357.421875 29.230469 357.480469 31.832031 C 357.410156 34.855469 357.785156 37.820312 358.902344 40.664062 C 360.527344 44.800781 363.417969 47.636719 367.675781 48.9375 C 371.886719 50.226562 376.128906 50.15625 380.34375 48.875 C 380.925781 48.683594 381.488281 48.445312 382.035156 48.167969 C 382.613281 47.90625 382.980469 47.332031 382.976562 46.695312 C 382.996094 45.839844 383.019531 44.976562 382.96875 44.121094 Z M 382.96875 44.121094 "/>
<path style=" stroke:none;fill-rule:nonzero;fill:rgb(100%,100%,100%);fill-opacity:1;" d="M 350.398438 15.574219 C 350.3125 14.863281 349.914062 14.394531 349.226562 14.375 C 347.753906 14.324219 346.28125 14.335938 344.820312 14.386719 C 344.214844 14.40625 343.800781 14.851562 343.714844 15.445312 C 343.664062 15.933594 343.644531 16.425781 343.660156 16.914062 C 343.660156 21.886719 343.660156 26.855469 343.660156 31.824219 L 343.660156 46.183594 C 343.660156 46.609375 343.644531 47.042969 343.667969 47.472656 C 343.738281 48.601562 344.128906 49.015625 345.25 49.066406 C 346.105469 49.105469 346.964844 49.082031 347.824219 49.078125 C 350.308594 49.070312 350.433594 48.957031 350.4375 46.496094 C 350.4375 36.617188 350.4375 26.738281 350.4375 16.859375 C 350.449219 16.429688 350.4375 16 350.398438 15.574219 Z M 350.398438 15.574219 "/>
<path style=" stroke:none;fill-rule:nonzero;fill:rgb(100%,100%,100%);fill-opacity:1;" d="M 133.050781 50.96875 C 130.015625 50.300781 126.96875 50.355469 123.917969 50.847656 C 121.722656 51.203125 119.625 51.851562 117.671875 52.9375 C 117.191406 53.203125 116.730469 53.503906 116.292969 53.835938 C 115.949219 54.097656 115.660156 54.425781 115.773438 54.929688 C 115.867188 55.324219 116.246094 55.488281 117.007812 55.433594 C 117.3125 55.410156 117.613281 55.347656 117.921875 55.324219 C 120.054688 55.144531 122.179688 54.8125 124.332031 54.871094 C 125.253906 54.871094 126.171875 54.828125 127.085938 54.886719 C 127.757812 54.929688 128.425781 55.046875 129.070312 55.234375 C 130.257812 55.574219 130.679688 56.125 130.707031 57.359375 C 130.722656 57.972656 130.671875 58.585938 130.554688 59.1875 C 130.351562 60.207031 130.136719 61.234375 129.8125 62.222656 C 129.140625 64.261719 128.390625 66.277344 127.679688 68.304688 C 127.515625 68.765625 127.355469 69.226562 127.234375 69.699219 C 127.171875 69.945312 127.253906 70.203125 127.445312 70.371094 C 127.710938 70.613281 128.007812 70.585938 128.296875 70.445312 C 129.148438 70.035156 129.769531 69.339844 130.351562 68.632812 C 133.714844 64.515625 135.558594 59.78125 135.824219 54.464844 C 135.941406 51.984375 135.515625 51.507812 133.050781 50.96875 Z M 133.050781 50.96875 "/>
<path style=" stroke:none;fill-rule:nonzero;fill:rgb(100%,100%,100%);fill-opacity:1;" d="M 347.117188 0.015625 C 344.46875 -0.128906 342.367188 1.914062 342.957031 5.113281 C 343.269531 6.820312 344.453125 7.90625 346.167969 8.191406 C 348.1875 8.523438 349.941406 7.824219 350.792969 6.339844 C 350.855469 6.234375 350.910156 6.125 350.957031 6.011719 C 352.09375 3.328125 350.734375 -0.109375 347.117188 0.015625 Z M 347.117188 0.015625 "/>
</g>
</svg>
