<?xml version="1.0" encoding="UTF-8"?>
<svg xmlns="http://www.w3.org/2000/svg" xmlns:xlink="http://www.w3.org/1999/xlink" width="1200px" height="800px" viewBox="0 0 1200 800" version="1.1">
<g id="surface1">
<path style=" stroke:none;fill-rule:nonzero;fill:rgb(13.72549%,11.764706%,12.156863%);fill-opacity:1;" d="M 185.992188 269.984375 C 167.09375 277.894531 146.308594 300.210938 139.75 328.285156 C 131.429688 363.824219 166.027344 378.832031 168.855469 373.9375 C 172.179688 368.128906 162.636719 366.179688 160.6875 347.753906 C 158.179688 323.921875 169.226562 297.300781 183.171875 285.617188 C 185.773438 283.480469 185.648438 286.496094 185.648438 292.050781 C 185.648438 302.070312 185.085938 391.707031 185.085938 410.417969 C 185.085938 435.753906 184.050781 443.730469 182.132812 451.605469 C 180.25 459.617188 177.203125 465.015625 179.5 467.121094 C 182.101562 469.441406 193.152344 463.914062 199.558594 454.972656 C 207.222656 444.261719 209.921875 431.386719 210.421875 417.417969 C 210.984375 400.59375 210.953125 373.84375 210.984375 358.617188 C 210.984375 344.613281 211.207031 303.671875 210.765625 279.023438 C 210.640625 272.996094 193.875 266.683594 185.992188 269.984375 M 1057.367188 402.976562 C 1054.664062 402.976562 1053.382812 405.804688 1052.34375 410.546875 C 1048.765625 427.089844 1045 430.824219 1040.128906 430.824219 C 1034.703125 430.824219 1029.832031 422.632812 1028.546875 406.242188 C 1027.578125 393.371094 1027.730469 369.632812 1028.988281 346.023438 C 1029.242188 341.1875 1027.917969 336.390625 1014.917969 331.648438 C 1009.300781 329.636719 1001.167969 326.625 997.121094 336.417969 C 985.660156 364.019531 981.203125 385.992188 980.128906 394.878906 C 980.105469 395.34375 979.539062 395.410156 979.4375 394.347656 C 978.785156 387.214844 977.277344 374.25 977.089844 346.996094 C 977.023438 341.726562 975.925781 337.167969 970.023438 333.464844 C 966.226562 331.082031 954.671875 326.808594 950.492188 331.867188 C 946.914062 336.011719 942.742188 347.128906 938.378906 360.3125 C 934.859375 371.050781 932.410156 378.335938 932.410156 378.335938 C 932.410156 378.335938 932.4375 349.382812 932.503906 338.394531 C 932.503906 334.246094 929.675781 332.871094 928.832031 332.617188 C 924.96875 331.488281 917.335938 329.636719 914.136719 329.636719 C 910.152344 329.636719 909.207031 331.867188 909.207031 335.101562 C 909.207031 335.503906 908.550781 373.179688 908.550781 399.523438 L 908.550781 403.226562 C 906.378906 415.351562 899.230469 431.800781 891.472656 431.800781 C 883.714844 431.800781 880.042969 424.921875 880.042969 393.527344 C 880.042969 375.222656 880.609375 367.25 880.859375 354 C 881.015625 346.367188 881.328125 340.5 881.300781 339.152344 C 881.234375 335.101562 874.167969 333.023438 870.902344 332.273438 C 867.609375 331.488281 864.75 331.234375 862.492188 331.328125 C 859.355469 331.519531 857.125 333.589844 857.125 336.484375 L 857.125 340.875 C 853.074219 334.472656 846.507812 330.011719 842.117188 328.726562 C 830.375 325.242188 818.09375 328.347656 808.832031 341.28125 C 801.488281 351.585938 797.058594 363.226562 795.335938 379.964844 C 794.042969 392.210938 794.457031 404.613281 796.746094 415.097656 C 793.984375 426.933594 788.894531 431.800781 783.339844 431.800781 C 775.238281 431.800781 769.402344 418.609375 770.0625 395.785156 C 770.535156 380.78125 773.515625 370.265625 776.808594 355.003906 C 778.226562 348.503906 777.0625 345.117188 774.207031 341.820312 C 771.597656 338.863281 766.011719 337.328125 758.007812 339.175781 C 752.320312 340.527344 744.128906 341.972656 736.6875 343.074219 C 736.6875 343.074219 737.125 341.28125 737.503906 338.113281 C 739.421875 321.5 721.367188 322.851562 715.617188 328.160156 C 712.164062 331.328125 709.808594 335.066406 708.933594 341.785156 C 707.523438 352.464844 716.214844 357.484375 716.214844 357.484375 C 713.363281 370.542969 706.390625 387.621094 699.140625 399.960938 C 695.273438 406.589844 692.320312 411.457031 688.496094 416.667969 C 688.460938 414.75 688.460938 412.800781 688.460938 410.890625 C 688.394531 383.417969 688.738281 361.789062 688.898438 354 C 689.058594 346.367188 689.371094 340.65625 689.371094 339.304688 C 689.304688 336.351562 687.582031 335.191406 683.9375 333.808594 C 680.738281 332.558594 676.9375 331.648438 673.011719 331.328125 C 668.082031 330.953125 665.070312 333.589844 665.164062 336.695312 L 665.164062 340.875 C 661.085938 334.472656 654.519531 330.011719 650.1875 328.726562 C 638.414062 325.242188 626.140625 328.347656 616.878906 341.28125 C 609.5625 351.585938 604.722656 365.996094 603.339844 379.804688 C 602.089844 392.742188 602.308594 403.667969 604.066406 412.902344 C 602.183594 422.128906 596.816406 431.800781 590.726562 431.800781 C 582.96875 431.800781 578.539062 424.921875 578.539062 393.527344 C 578.539062 375.222656 579.105469 367.25 579.390625 354 C 579.542969 346.367188 579.832031 340.5 579.796875 339.152344 C 579.761719 335.101562 572.707031 333.023438 569.40625 332.273438 C 565.984375 331.460938 563 331.207031 560.738281 331.328125 C 557.722656 331.582031 555.621094 334.246094 555.621094 336.289062 L 555.621094 340.875 C 551.542969 334.472656 544.976562 330.011719 540.613281 328.726562 C 528.871094 325.242188 516.691406 328.414062 507.363281 341.28125 C 501.277344 349.667969 496.347656 358.988281 493.804688 379.652344 C 493.113281 385.621094 492.769531 391.199219 492.800781 396.417969 C 490.378906 411.230469 479.675781 428.316406 470.949219 428.316406 C 465.796875 428.316406 460.902344 418.390625 460.902344 397.203125 C 460.902344 369.007812 462.660156 328.820312 462.972656 324.925781 C 462.972656 324.925781 474.019531 324.734375 476.191406 324.707031 C 481.683594 324.675781 486.707031 324.800781 494.027344 324.421875 C 497.730469 324.234375 501.277344 311.015625 497.445312 309.355469 C 495.75 308.628906 483.566406 307.96875 478.730469 307.878906 C 474.652344 307.785156 463.378906 306.9375 463.378906 306.9375 C 463.378906 306.9375 464.386719 280.28125 464.609375 277.488281 C 464.792969 275.101562 461.78125 273.910156 460.023438 273.183594 C 455.78125 271.367188 451.980469 270.515625 447.523438 269.605469 C 441.277344 268.320312 438.484375 269.578125 437.949219 274.8125 C 437.132812 282.761719 436.695312 306.0625 436.695312 306.0625 C 432.109375 306.0625 416.570312 305.144531 412.011719 305.144531 C 407.78125 305.144531 403.191406 323.359375 409.066406 323.578125 C 415.816406 323.828125 427.527344 324.082031 435.308594 324.296875 C 435.308594 324.296875 434.964844 365.148438 434.964844 377.734375 L 434.964844 381.628906 C 430.667969 403.945312 415.625 416.007812 415.625 416.007812 C 418.859375 401.21875 412.265625 390.136719 400.335938 380.78125 C 395.941406 377.296875 387.277344 370.730469 377.570312 363.605469 C 377.570312 363.605469 383.191406 358.050781 388.183594 346.933594 C 391.703125 339.050781 391.863281 329.984375 383.191406 328 C 368.878906 324.707031 357.101562 335.226562 353.554688 346.460938 C 350.855469 355.128906 352.273438 361.597656 357.632812 368.28125 L 358.859375 369.792969 C 355.660156 376.007812 351.199219 384.386719 347.460938 390.886719 C 337.011719 408.941406 329.128906 423.199219 323.195312 423.199219 C 318.425781 423.199219 318.484375 408.722656 318.484375 395.160156 C 318.484375 383.476562 319.363281 365.867188 320.054688 347.660156 C 320.273438 341.660156 317.261719 338.207031 312.210938 335.101562 C 309.128906 333.214844 302.597656 329.511719 298.800781 329.511719 C 293.152344 329.511719 276.757812 330.261719 261.285156 375 C 259.335938 380.65625 255.503906 390.921875 255.503906 390.921875 L 255.851562 337.109375 C 255.851562 335.851562 255.191406 334.660156 253.65625 333.808594 C 251.046875 332.398438 244.046875 329.511719 237.894531 329.511719 C 234.90625 329.511719 233.429688 330.894531 233.429688 333.621094 L 232.929688 417.765625 C 232.929688 424.171875 233.085938 431.640625 233.71875 434.910156 C 234.34375 438.175781 235.378906 440.84375 236.636719 442.4375 C 237.894531 443.980469 239.363281 445.171875 241.753906 445.707031 C 243.980469 446.175781 256.253906 447.714844 256.886719 443.039062 C 257.671875 437.417969 257.699219 431.363281 264.140625 408.664062 C 274.183594 373.371094 287.25 356.167969 293.402344 350.042969 C 294.5 348.976562 295.726562 348.910156 295.660156 350.671875 C 295.378906 358.421875 294.46875 377.734375 293.84375 394.15625 C 292.179688 438.140625 300.148438 446.269531 311.613281 446.269531 C 320.339844 446.269531 332.648438 437.574219 345.867188 415.601562 C 354.121094 401.878906 362.097656 388.472656 367.871094 378.773438 C 371.832031 382.472656 376.347656 386.464844 380.839844 390.734375 C 391.296875 400.621094 394.714844 410.039062 392.425781 418.960938 C 390.699219 425.800781 384.136719 432.832031 372.488281 425.992188 C 369.097656 424.011719 367.652344 422.476562 364.234375 420.210938 C 362.410156 418.988281 359.582031 418.644531 357.921875 419.898438 C 353.523438 423.199219 351.042969 427.371094 349.597656 432.554688 C 348.246094 437.609375 353.304688 440.242188 358.546875 442.566406 C 363.035156 444.609375 372.710938 446.398438 378.890625 446.617188 C 402.972656 447.433594 422.25 435 435.65625 402.976562 C 438.078125 430.636719 448.277344 446.304688 466.019531 446.304688 C 477.914062 446.304688 489.816406 430.949219 495.03125 415.847656 C 496.5 422.003906 498.730469 427.335938 501.589844 431.894531 C 515.28125 453.554688 541.835938 448.910156 555.148438 430.511719 C 559.292969 424.796875 559.925781 422.753906 559.925781 422.753906 C 561.867188 440.125 575.871094 446.238281 583.882812 446.238281 C 592.890625 446.238281 602.125 441.972656 608.617188 427.335938 C 609.402344 428.941406 610.21875 430.449219 611.164062 431.894531 C 624.820312 453.554688 651.378906 448.910156 664.722656 430.511719 C 665.324219 429.597656 665.886719 428.847656 666.355469 428.121094 L 666.765625 439.550781 C 666.765625 439.550781 659.136719 446.523438 654.460938 450.820312 C 633.894531 469.695312 618.257812 484.011719 617.097656 500.648438 C 615.65625 521.902344 632.859375 529.789062 645.917969 530.816406 C 659.734375 531.921875 671.601562 524.292969 678.878906 513.554688 C 685.289062 504.132812 689.5 483.882812 689.1875 463.855469 C 689.058594 455.816406 688.867188 445.644531 688.679688 434.6875 C 695.929688 426.339844 704.09375 415.722656 711.570312 403.296875 C 719.761719 389.789062 728.488281 371.609375 732.945312 357.453125 C 732.945312 357.453125 740.578125 357.519531 748.679688 357.011719 C 751.289062 356.855469 752.039062 357.390625 751.535156 359.273438 C 750.96875 361.5625 741.300781 398.898438 750.125 423.765625 C 756.183594 440.777344 769.773438 446.269531 777.878906 446.269531 C 787.324219 446.269531 796.371094 439.113281 801.203125 428.5 C 801.800781 429.664062 802.398438 430.824219 803.089844 431.894531 C 816.75 453.554688 843.210938 448.878906 856.652344 430.511719 C 859.699219 426.339844 861.394531 422.753906 861.394531 422.753906 C 864.28125 440.75 878.285156 446.304688 886.289062 446.304688 C 894.671875 446.304688 902.582031 442.882812 909.019531 427.683594 C 909.273438 434.375 909.679688 439.839844 910.371094 441.5625 C 910.777344 442.632812 913.164062 443.949219 914.859375 444.609375 C 922.519531 447.433594 930.308594 446.085938 933.164062 445.484375 C 935.171875 445.078125 936.742188 443.511719 936.933594 439.367188 C 937.492188 428.5 937.148438 410.261719 940.445312 396.667969 C 946.003906 373.9375 951.152344 365.117188 953.597656 360.75 C 954.957031 358.296875 956.519531 357.890625 956.554688 360.464844 C 956.644531 365.707031 956.933594 381.09375 959.09375 401.820312 C 960.636719 417.011719 962.738281 426.019531 964.371094 428.882812 C 968.953125 437.011719 974.667969 437.390625 979.285156 437.390625 C 982.238281 437.390625 988.390625 436.570312 987.851562 431.390625 C 987.574219 428.882812 988.046875 413.273438 993.472656 390.863281 C 997.054688 376.199219 1002.988281 362.980469 1005.125 358.144531 C 1005.941406 356.355469 1006.289062 357.738281 1006.289062 358.019531 C 1005.816406 368.097656 1004.8125 401.09375 1008.890625 419.113281 C 1014.484375 443.578125 1030.582031 446.304688 1036.203125 446.304688 C 1048.164062 446.304688 1057.996094 437.195312 1061.289062 413.214844 C 1062.109375 407.433594 1060.910156 402.976562 1057.367188 402.976562 M 555.367188 388.160156 C 554.710938 400.839844 552.226562 411.457031 548.277344 419.148438 C 541.050781 433.117188 526.835938 437.515625 520.582031 417.390625 C 516.03125 402.855469 517.570312 383.011719 519.484375 372.300781 C 522.246094 356.414062 529.25 345.179688 540.175781 346.207031 C 551.351562 347.3125 556.8125 361.722656 555.367188 388.160156 M 664.910156 388.347656 C 664.285156 400.308594 661.179688 412.363281 657.785156 419.148438 C 650.789062 433.210938 636.152344 437.609375 630.089844 417.390625 C 625.953125 403.539062 626.925781 385.679688 628.992188 374.4375 C 631.667969 359.808594 638.101562 346.207031 649.691406 346.207031 C 660.960938 346.207031 666.515625 358.582031 664.910156 388.347656 M 667.773438 470.101562 C 667.613281 491.988281 664.191406 511.140625 656.839844 516.726562 C 646.355469 524.636719 632.261719 518.671875 635.179688 502.722656 C 637.753906 488.59375 649.96875 474.183594 667.804688 456.570312 C 667.804688 456.570312 667.863281 460.585938 667.769531 470.101562 M 856.90625 388.472656 C 856.273438 401.632812 853.351562 411.898438 849.746094 419.148438 C 842.742188 433.210938 828.238281 437.574219 822.050781 417.390625 C 818.691406 406.367188 818.53125 387.96875 820.953125 372.621094 C 823.402344 356.980469 830.28125 345.179688 841.644531 346.207031 C 852.878906 347.28125 858.128906 361.722656 856.90625 388.472656 "/>
</g>
</svg>
