<?xml version="1.0" encoding="UTF-8"?>
<svg xmlns="http://www.w3.org/2000/svg" xmlns:xlink="http://www.w3.org/1999/xlink" width="300px" height="59px" viewBox="0 0 300 59" version="1.1">
<g id="surface1">
<path style=" stroke:none;fill-rule:nonzero;fill:rgb(100%,100%,100%);fill-opacity:1;" d="M 45.078125 0.0976562 C 20.257812 0.0976562 0.136719 13.265625 0.136719 29.507812 C 0.136719 45.75 20.257812 58.914062 45.078125 58.914062 C 69.902344 58.914062 90.019531 45.75 90.019531 29.507812 C 90.019531 13.265625 69.902344 0.0976562 45.078125 0.0976562 Z M 65.6875 42.515625 C 64.882812 43.378906 63.15625 43.652344 61.835938 43.121094 C 51.285156 38.902344 38 37.949219 22.355469 40.289062 C 20.847656 40.511719 19.34375 39.894531 19.003906 38.90625 C 18.65625 37.921875 19.597656 36.9375 21.109375 36.710938 C 38.230469 34.152344 52.914062 35.253906 64.761719 39.992188 C 66.082031 40.523438 66.5 41.648438 65.6875 42.515625 Z M 71.191406 34.507812 C 70.175781 35.585938 68.019531 35.925781 66.371094 35.261719 C 54.289062 30.402344 35.875 28.996094 21.585938 31.835938 C 19.734375 32.199219 17.777344 31.515625 17.214844 30.304688 C 16.65625 29.09375 17.699219 27.816406 19.550781 27.445312 C 35.871094 24.207031 56.164062 25.777344 70.035156 31.355469 C 71.683594 32.019531 72.203125 33.429688 71.191406 34.507812 Z M 71.660156 26.167969 C 57.175781 20.539062 33.277344 20.019531 19.449219 22.765625 C 17.230469 23.207031 14.878906 22.386719 14.207031 20.933594 C 13.535156 19.480469 14.785156 17.945312 17.007812 17.503906 C 32.882812 14.347656 59.277344 14.957031 75.953125 21.4375 C 77.953125 22.210938 78.609375 23.898438 77.421875 25.207031 C 76.242188 26.511719 73.65625 26.945312 71.664062 26.167969 Z M 122.410156 27.246094 C 114.648438 26.035156 113.269531 25.1875 113.269531 23.398438 C 113.269531 21.710938 115.695312 20.578125 119.308594 20.578125 C 122.808594 20.578125 126.273438 21.441406 129.914062 23.214844 C 130.019531 23.269531 130.160156 23.289062 130.292969 23.277344 C 130.433594 23.261719 130.550781 23.214844 130.632812 23.140625 L 134.421875 19.644531 C 134.574219 19.5 134.53125 19.300781 134.324219 19.191406 C 129.992188 16.917969 125.121094 15.8125 119.421875 15.8125 C 111.042969 15.8125 105.1875 19.105469 105.1875 23.8125 C 105.1875 28.859375 110.238281 30.648438 118.964844 32.027344 C 126.386719 33.148438 127.640625 34.085938 127.640625 35.761719 C 127.640625 37.617188 125.109375 38.773438 121.03125 38.773438 C 116.5 38.773438 112.804688 37.773438 108.671875 35.433594 C 108.570312 35.375 108.429688 35.351562 108.300781 35.351562 C 108.160156 35.359375 108.039062 35.402344 107.953125 35.46875 L 103.703125 38.777344 C 103.523438 38.917969 103.546875 39.121094 103.75 39.242188 C 108.558594 42.050781 114.472656 43.53125 120.859375 43.53125 C 129.886719 43.53125 135.71875 40.304688 135.71875 35.308594 C 135.734375 31.089844 131.875 28.753906 122.425781 27.25 Z M 156.144531 22.238281 C 152.234375 22.238281 149.023438 23.246094 146.371094 25.3125 L 146.371094 22.988281 C 146.371094 22.804688 146.148438 22.652344 145.867188 22.652344 L 138.917969 22.652344 C 138.636719 22.652344 138.414062 22.804688 138.414062 22.988281 L 138.414062 48.835938 C 138.414062 49.019531 138.636719 49.167969 138.917969 49.167969 L 145.867188 49.167969 C 146.148438 49.167969 146.371094 49.019531 146.371094 48.835938 L 146.371094 40.675781 C 149.023438 42.621094 152.234375 43.570312 156.144531 43.570312 C 163.417969 43.570312 170.78125 39.910156 170.78125 32.90625 C 170.789062 25.902344 163.425781 22.238281 156.148438 22.238281 Z M 162.699219 32.90625 C 162.699219 36.46875 159.34375 38.960938 154.535156 38.960938 C 149.785156 38.960938 146.199219 36.359375 146.199219 32.90625 C 146.199219 29.453125 149.785156 26.851562 154.535156 26.851562 C 159.261719 26.851562 162.699219 29.398438 162.699219 32.90625 Z M 189.644531 22.238281 C 180.277344 22.238281 172.941406 26.957031 172.941406 32.980469 C 172.941406 38.941406 180.230469 43.609375 189.53125 43.609375 C 198.929688 43.609375 206.285156 38.90625 206.285156 32.90625 C 206.285156 26.925781 198.976562 22.238281 189.644531 22.238281 Z M 189.644531 38.996094 C 184.664062 38.996094 180.90625 36.375 180.90625 32.902344 C 180.90625 29.417969 184.535156 26.886719 189.53125 26.886719 C 194.542969 26.886719 198.320312 29.503906 198.320312 32.980469 C 198.320312 36.464844 194.671875 38.996094 189.644531 38.996094 Z M 226.28125 22.652344 L 218.636719 22.652344 L 218.636719 17.539062 C 218.636719 17.355469 218.410156 17.207031 218.128906 17.207031 L 211.179688 17.207031 C 210.902344 17.207031 210.671875 17.355469 210.671875 17.539062 L 210.671875 22.652344 L 207.332031 22.652344 C 207.054688 22.652344 206.828125 22.804688 206.828125 22.988281 L 206.828125 26.894531 C 206.828125 27.078125 207.054688 27.226562 207.332031 27.226562 L 210.671875 27.226562 L 210.671875 37.339844 C 210.671875 41.425781 213.777344 43.496094 219.914062 43.496094 C 222.402344 43.496094 224.46875 43.160156 226.417969 42.4375 C 226.578125 42.378906 226.675781 42.269531 226.675781 42.148438 L 226.675781 38.425781 C 226.675781 38.3125 226.582031 38.203125 226.433594 38.144531 C 226.28125 38.082031 226.09375 38.078125 225.9375 38.132812 C 224.601562 38.570312 223.308594 38.773438 221.859375 38.773438 C 219.632812 38.773438 218.636719 38.109375 218.636719 36.628906 L 218.636719 27.230469 L 226.28125 27.230469 C 226.5625 27.230469 226.789062 27.082031 226.789062 26.898438 L 226.789062 22.988281 C 226.796875 22.804688 226.574219 22.65625 226.289062 22.65625 Z M 252.921875 22.675781 L 252.921875 22.046875 C 252.921875 20.199219 254.007812 19.375 256.433594 19.375 C 257.882812 19.375 259.046875 19.5625 260.351562 19.847656 C 260.511719 19.878906 260.679688 19.863281 260.808594 19.800781 C 260.941406 19.738281 261.015625 19.636719 261.015625 19.53125 L 261.015625 15.699219 C 261.015625 15.550781 260.875 15.421875 260.65625 15.378906 C 259.28125 15.109375 257.523438 14.835938 254.882812 14.835938 C 248.46875 14.835938 245.070312 17.199219 245.070312 21.671875 L 245.070312 22.632812 L 241.734375 22.632812 C 241.453125 22.632812 241.222656 22.785156 241.222656 22.96875 L 241.222656 26.894531 C 241.222656 27.078125 241.453125 27.226562 241.734375 27.226562 L 245.070312 27.226562 L 245.070312 42.824219 C 245.070312 43.007812 245.300781 43.15625 245.582031 43.15625 L 252.527344 43.15625 C 252.808594 43.15625 253.035156 43.007812 253.035156 42.824219 L 253.035156 27.230469 L 259.523438 27.230469 L 269.464844 42.824219 C 268.335938 44.460938 267.226562 44.785156 265.710938 44.785156 C 264.488281 44.785156 263.195312 44.546875 261.878906 44.074219 C 261.757812 44.03125 261.605469 44.023438 261.476562 44.046875 C 261.34375 44.082031 261.230469 44.144531 261.175781 44.226562 L 258.820312 47.609375 C 258.707031 47.769531 258.804688 47.957031 259.042969 48.042969 C 261.5 48.914062 263.714844 49.285156 266.457031 49.285156 C 271.589844 49.285156 274.425781 47.71875 276.921875 43.511719 L 288.976562 23.128906 C 289.042969 23.027344 289.019531 22.910156 288.921875 22.820312 C 288.832031 22.730469 288.675781 22.675781 288.511719 22.675781 L 281.277344 22.675781 C 281.054688 22.675781 280.863281 22.765625 280.792969 22.898438 L 273.382812 36.746094 L 265.265625 22.890625 C 265.191406 22.761719 265.003906 22.675781 264.792969 22.675781 Z M 237.476562 22.652344 L 230.527344 22.652344 C 230.25 22.652344 230.019531 22.804688 230.019531 22.988281 L 230.019531 42.824219 C 230.019531 43.007812 230.25 43.15625 230.527344 43.15625 L 237.476562 43.15625 C 237.757812 43.15625 237.988281 43.007812 237.988281 42.824219 L 237.988281 22.988281 C 237.988281 22.804688 237.761719 22.65625 237.476562 22.65625 Z M 234.042969 13.621094 C 231.289062 13.621094 229.058594 15.082031 229.058594 16.882812 C 229.058594 18.683594 231.289062 20.144531 234.042969 20.144531 C 236.796875 20.144531 239.023438 18.683594 239.023438 16.882812 C 239.023438 15.082031 236.789062 13.621094 234.042969 13.621094 Z M 294.914062 29.03125 C 292.164062 29.03125 290.023438 27.585938 290.023438 25.832031 C 290.023438 24.078125 292.191406 22.617188 294.9375 22.617188 C 297.6875 22.617188 299.828125 24.058594 299.828125 25.8125 C 299.828125 27.570312 297.660156 29.03125 294.914062 29.03125 Z M 294.9375 22.933594 C 292.433594 22.933594 290.539062 24.238281 290.539062 25.832031 C 290.539062 27.425781 292.421875 28.710938 294.914062 28.710938 C 297.417969 28.710938 299.3125 27.410156 299.3125 25.8125 C 299.3125 24.21875 297.429688 22.933594 294.9375 22.933594 Z M 296.023438 26.144531 L 297.40625 27.410156 L 296.238281 27.410156 L 294.992188 26.246094 L 293.925781 26.246094 L 293.925781 27.410156 L 292.949219 27.410156 L 292.949219 24.050781 L 295.234375 24.050781 C 296.429688 24.050781 297.214844 24.449219 297.214844 25.121094 C 297.21875 25.671875 296.730469 26.011719 296.027344 26.144531 Z M 295.195312 24.628906 L 293.925781 24.628906 L 293.925781 25.691406 L 295.195312 25.691406 C 295.828125 25.691406 296.210938 25.488281 296.210938 25.160156 C 296.210938 24.8125 295.828125 24.628906 295.195312 24.628906 Z M 295.195312 24.628906 "/>
</g>
</svg>
