<?xml version="1.0" encoding="UTF-8"?>
<svg xmlns="http://www.w3.org/2000/svg" xmlns:xlink="http://www.w3.org/1999/xlink" width="233px" height="70px" viewBox="0 0 232 70" version="1.1">
<g id="surface1">
<path style=" stroke:none;fill-rule:nonzero;fill:rgb(100%,100%,100%);fill-opacity:1;" d="M 34.859375 0.117188 C 15.667969 0.117188 0.105469 15.738281 0.105469 35.007812 C 0.105469 54.277344 15.667969 69.898438 34.859375 69.898438 C 54.058594 69.898438 69.617188 54.277344 69.617188 35.007812 C 69.617188 15.738281 54.058594 0.117188 34.859375 0.117188 Z M 50.800781 50.441406 C 50.175781 51.464844 48.839844 51.789062 47.820312 51.160156 C 39.660156 46.15625 29.386719 45.023438 17.289062 47.796875 C 16.121094 48.066406 14.960938 47.332031 14.695312 46.160156 C 14.429688 44.992188 15.15625 43.824219 16.324219 43.558594 C 29.5625 40.519531 40.921875 41.828125 50.082031 47.449219 C 51.101562 48.078125 51.425781 49.414062 50.800781 50.441406 Z M 55.054688 40.941406 C 54.269531 42.21875 52.601562 42.625 51.328125 41.835938 C 41.984375 36.070312 27.742188 34.402344 16.691406 37.769531 C 15.261719 38.203125 13.746094 37.394531 13.3125 35.957031 C 12.878906 34.519531 13.6875 33 15.117188 32.5625 C 27.742188 28.71875 43.433594 30.582031 54.160156 37.199219 C 55.433594 37.988281 55.835938 39.664062 55.054688 40.941406 Z M 55.417969 31.046875 C 44.21875 24.367188 25.734375 23.753906 15.039062 27.011719 C 13.324219 27.535156 11.507812 26.5625 10.988281 24.835938 C 10.464844 23.113281 11.433594 21.289062 13.152344 20.765625 C 25.429688 17.023438 45.839844 17.746094 58.734375 25.433594 C 60.285156 26.351562 60.789062 28.355469 59.875 29.90625 C 58.960938 31.457031 56.960938 31.96875 55.421875 31.046875 Z M 94.664062 32.328125 C 88.664062 30.890625 87.59375 29.882812 87.59375 27.761719 C 87.59375 25.761719 89.472656 24.414062 92.265625 24.414062 C 94.96875 24.414062 97.652344 25.4375 100.464844 27.542969 C 100.546875 27.605469 100.65625 27.632812 100.761719 27.613281 C 100.867188 27.597656 100.960938 27.542969 101.023438 27.453125 L 103.953125 23.308594 C 104.070312 23.136719 104.039062 22.902344 103.878906 22.769531 C 100.527344 20.074219 96.757812 18.761719 92.351562 18.761719 C 85.875 18.761719 81.34375 22.667969 81.34375 28.25 C 81.34375 34.242188 85.25 36.363281 92 38 C 97.738281 39.328125 98.710938 40.441406 98.710938 42.429688 C 98.710938 44.632812 96.75 46.003906 93.597656 46.003906 C 90.09375 46.003906 87.234375 44.816406 84.039062 42.039062 C 83.960938 41.96875 83.851562 41.941406 83.753906 41.945312 C 83.644531 41.953125 83.550781 42.003906 83.484375 42.082031 L 80.195312 46.007812 C 80.058594 46.171875 80.074219 46.414062 80.234375 46.558594 C 83.953125 49.890625 88.523438 51.648438 93.464844 51.648438 C 100.445312 51.648438 104.957031 47.820312 104.957031 41.890625 C 104.96875 36.886719 101.984375 34.117188 94.675781 32.332031 Z M 120.753906 26.382812 C 117.726562 26.382812 115.246094 27.582031 113.195312 30.035156 L 113.195312 27.273438 C 113.195312 27.054688 113.019531 26.878906 112.804688 26.878906 L 107.429688 26.878906 C 107.214844 26.878906 107.039062 27.054688 107.039062 27.273438 L 107.039062 57.941406 C 107.039062 58.15625 107.214844 58.335938 107.429688 58.335938 L 112.804688 58.335938 C 113.019531 58.335938 113.195312 58.15625 113.195312 57.941406 L 113.195312 48.261719 C 115.246094 50.566406 117.726562 51.695312 120.753906 51.695312 C 126.375 51.695312 132.070312 47.347656 132.070312 39.039062 C 132.078125 30.730469 126.382812 26.382812 120.757812 26.382812 Z M 125.820312 39.039062 C 125.820312 43.269531 123.226562 46.222656 119.507812 46.222656 C 115.835938 46.222656 113.0625 43.136719 113.0625 39.039062 C 113.0625 34.945312 115.835938 31.859375 119.507812 31.859375 C 123.164062 31.859375 125.820312 34.878906 125.820312 39.039062 Z M 146.65625 26.382812 C 139.414062 26.382812 133.742188 31.984375 133.742188 39.132812 C 133.742188 46.203125 139.378906 51.742188 146.570312 51.742188 C 153.839844 51.742188 159.527344 46.160156 159.527344 39.039062 C 159.527344 31.945312 153.875 26.386719 146.65625 26.386719 Z M 146.65625 46.265625 C 142.804688 46.265625 139.902344 43.15625 139.902344 39.039062 C 139.902344 34.902344 142.707031 31.898438 146.570312 31.898438 C 150.445312 31.898438 153.367188 35.007812 153.367188 39.128906 C 153.367188 43.265625 150.546875 46.265625 146.65625 46.265625 Z M 174.992188 26.878906 L 169.078125 26.878906 L 169.078125 20.808594 C 169.078125 20.589844 168.902344 20.414062 168.6875 20.414062 L 163.3125 20.414062 C 163.097656 20.414062 162.917969 20.589844 162.917969 20.808594 L 162.917969 26.878906 L 160.335938 26.878906 C 160.121094 26.878906 159.945312 27.054688 159.945312 27.273438 L 159.945312 31.910156 C 159.945312 32.128906 160.121094 32.304688 160.335938 32.304688 L 162.917969 32.304688 L 162.917969 44.304688 C 162.917969 49.148438 165.320312 51.605469 170.066406 51.605469 C 171.992188 51.605469 173.589844 51.207031 175.09375 50.347656 C 175.21875 50.28125 175.292969 50.148438 175.292969 50.007812 L 175.292969 45.589844 C 175.292969 45.457031 175.222656 45.328125 175.109375 45.257812 C 174.992188 45.183594 174.847656 45.179688 174.726562 45.242188 C 173.691406 45.761719 172.691406 46.003906 171.570312 46.003906 C 169.851562 46.003906 169.078125 45.214844 169.078125 43.457031 L 169.078125 32.308594 L 174.992188 32.308594 C 175.207031 32.308594 175.382812 32.128906 175.382812 31.910156 L 175.382812 27.277344 C 175.390625 27.058594 175.214844 26.878906 174.996094 26.878906 Z M 195.59375 26.902344 L 195.59375 26.15625 C 195.59375 23.964844 196.433594 22.984375 198.308594 22.984375 C 199.429688 22.984375 200.328125 23.207031 201.335938 23.546875 C 201.460938 23.585938 201.589844 23.566406 201.691406 23.492188 C 201.792969 23.417969 201.851562 23.296875 201.851562 23.171875 L 201.851562 18.625 C 201.851562 18.449219 201.746094 18.296875 201.574219 18.246094 C 200.511719 17.929688 199.152344 17.601562 197.109375 17.601562 C 192.148438 17.601562 189.523438 20.40625 189.523438 25.714844 L 189.523438 26.855469 L 186.941406 26.855469 C 186.726562 26.855469 186.546875 27.03125 186.546875 27.25 L 186.546875 31.910156 C 186.546875 32.128906 186.726562 32.304688 186.941406 32.304688 L 189.523438 32.304688 L 189.523438 50.808594 C 189.523438 51.027344 189.699219 51.203125 189.917969 51.203125 L 195.285156 51.203125 C 195.507812 51.203125 195.679688 51.027344 195.679688 50.808594 L 195.679688 32.304688 L 200.699219 32.304688 L 208.386719 50.808594 C 207.511719 52.75 206.65625 53.136719 205.484375 53.136719 C 204.539062 53.136719 203.539062 52.851562 202.519531 52.289062 C 202.425781 52.242188 202.308594 52.230469 202.210938 52.261719 C 202.105469 52.296875 202.019531 52.375 201.976562 52.472656 L 200.15625 56.484375 C 200.066406 56.679688 200.140625 56.898438 200.324219 57 C 202.226562 58.03125 203.941406 58.472656 206.0625 58.472656 C 210.027344 58.472656 212.222656 56.617188 214.152344 51.625 L 223.476562 27.441406 C 223.523438 27.320312 223.507812 27.183594 223.433594 27.074219 C 223.363281 26.96875 223.242188 26.902344 223.113281 26.902344 L 217.519531 26.902344 C 217.347656 26.902344 217.199219 27.011719 217.144531 27.167969 L 211.414062 43.597656 L 205.140625 27.15625 C 205.082031 27.003906 204.9375 26.902344 204.773438 26.902344 Z M 183.648438 26.878906 L 178.273438 26.878906 C 178.058594 26.878906 177.878906 27.054688 177.878906 27.273438 L 177.878906 50.808594 C 177.878906 51.027344 178.058594 51.203125 178.273438 51.203125 L 183.648438 51.203125 C 183.863281 51.203125 184.042969 51.027344 184.042969 50.808594 L 184.042969 27.273438 C 184.042969 27.058594 183.871094 26.878906 183.648438 26.878906 Z M 180.992188 16.160156 C 178.863281 16.160156 177.136719 17.890625 177.136719 20.027344 C 177.136719 22.167969 178.863281 23.898438 180.992188 23.898438 C 183.121094 23.898438 184.84375 22.167969 184.84375 20.027344 C 184.84375 17.890625 183.117188 16.160156 180.992188 16.160156 Z M 228.066406 34.445312 C 225.941406 34.445312 224.285156 32.730469 224.285156 30.648438 C 224.285156 28.566406 225.960938 26.832031 228.085938 26.832031 C 230.210938 26.832031 231.867188 28.546875 231.867188 30.625 C 231.867188 32.707031 230.191406 34.445312 228.066406 34.445312 Z M 228.085938 27.210938 C 226.148438 27.210938 224.683594 28.753906 224.683594 30.648438 C 224.683594 32.539062 226.140625 34.066406 228.066406 34.066406 C 230.003906 34.066406 231.46875 32.519531 231.46875 30.625 C 231.46875 28.734375 230.011719 27.210938 228.085938 27.210938 Z M 228.925781 31.015625 L 229.996094 32.519531 L 229.089844 32.519531 L 228.128906 31.140625 L 227.300781 31.140625 L 227.300781 32.519531 L 226.546875 32.519531 L 226.546875 28.535156 L 228.316406 28.535156 C 229.238281 28.535156 229.847656 29.007812 229.847656 29.808594 C 229.851562 30.460938 229.472656 30.859375 228.929688 31.015625 Z M 228.285156 29.21875 L 227.300781 29.21875 L 227.300781 30.480469 L 228.285156 30.480469 C 228.773438 30.480469 229.070312 30.238281 229.070312 29.847656 C 229.070312 29.4375 228.773438 29.21875 228.285156 29.21875 Z M 228.285156 29.21875 "/>
</g>
</svg>
